<svg xmlns="http://www.w3.org/2000/svg" version="1.1" xmlns:xlink="http://www.w3.org/1999/xlink" width="512" height="512" x="0" y="0" viewBox="0 0 60 60" style="enable-background:new 0 0 512 512" xml:space="preserve" class=""><g><path fill="#f4cc67" d="M15 10V3a2 2 0 0 1 2-2h1a2 2 0 0 1 2 2v7zM40 10V3a2 2 0 0 1 2-2h1a2 2 0 0 1 2 2v7z" opacity="1" data-original="#f4cc67"></path><path fill="#2a5f70" d="M7 21c-1.72 2.48-6 9-6 23a2.866 2.866 0 0 0 3 3h2.24a2.805 2.805 0 0 0 .82-.12L8 46zM53 21c1.72 2.48 6 9 6 23a2.866 2.866 0 0 1-3 3h-2.24a2.805 2.805 0 0 1-.82-.12L52 46zM26 52v3a4 4 0 0 1-4 4h-4a4 4 0 0 1-4-4v-3zM46 52v3a4 4 0 0 1-4 4h-4a4 4 0 0 1-4-4v-3z" opacity="1" data-original="#2a5f70"></path><rect width="46" height="44" x="7" y="9" fill="#35718a" rx="7" opacity="1" data-original="#35718a" class=""></rect><path fill="#ffffff" d="M26 20a6 6 0 1 1-11.658-2s3.047-3.31 5.658-3.31S25.658 18 25.658 18A6.014 6.014 0 0 1 26 20zM46 20a6 6 0 1 1-11.658-2s3.047-3.31 5.658-3.31S45.658 18 45.658 18A6.014 6.014 0 0 1 46 20z" opacity="1" data-original="#ffffff" class=""></path><rect width="34" height="14" x="13" y="30" fill="#224a54" rx="4" opacity="1" data-original="#224a54"></rect><g fill="#fff"><path d="M23 30v3a2 2 0 0 1-2 2h-2a2 2 0 0 1-2-2v-3zM33 30v3a2 2 0 0 1-2 2h-2a2 2 0 0 1-2-2v-3zM43 30v3a2 2 0 0 1-2 2h-2a2 2 0 0 1-2-2v-3zM23 44v-3a2 2 0 0 0-2-2h-2a2 2 0 0 0-2 2v3zM33 44v-3a2 2 0 0 0-2-2h-2a2 2 0 0 0-2 2v3zM43 44v-3a2 2 0 0 0-2-2h-2a2 2 0 0 0-2 2v3z" fill="#ffffff" opacity="1" data-original="#ffffff" class=""></path></g><circle cx="20" cy="20" r="4" fill="#3778c6" opacity="1" data-original="#3778c6"></circle><circle cx="40" cy="20" r="4" fill="#3778c6" opacity="1" data-original="#3778c6"></circle><circle cx="20" cy="20" r="2" fill="#2c4359" opacity="1" data-original="#2c4359"></circle><path fill="#2a5f70" d="M25.65 18h-11.3a5.99 5.99 0 0 1 11.3 0z" opacity="1" data-original="#2a5f70"></path><circle cx="40" cy="20" r="2" fill="#2c4359" opacity="1" data-original="#2c4359"></circle><path fill="#2a5f70" d="M45.65 18h-11.3a5.99 5.99 0 0 1 11.3 0z" opacity="1" data-original="#2a5f70"></path><circle cx="21" cy="19" r="1" fill="#ffffff" opacity="1" data-original="#ffffff" class=""></circle><circle cx="41" cy="19" r="1" fill="#ffffff" opacity="1" data-original="#ffffff" class=""></circle></g></svg>